<?xml version="1.0" standalone="no"?>
<!DOCTYPE svg PUBLIC "-//W3C//DTD SVG 20010904//EN"
 "http://www.w3.org/TR/2001/REC-SVG-20010904/DTD/svg10.dtd">
<svg version="1.0" xmlns="http://www.w3.org/2000/svg"
 width="700.000000pt" height="700.000000pt" viewBox="0 0 700.000000 700.000000"
 preserveAspectRatio="xMidYMid meet">
<metadata>
Created by potrace 1.11, written by Peter Selinger 2001-2013
</metadata>
<g transform="translate(0.000000,700.000000) scale(0.100000,-0.100000)"
fill="#000000" stroke="none">
<path d="M3230 6993 c-44 -3 -246 -29 -285 -37 -11 -2 -42 -7 -69 -10 -27 -4
-53 -9 -56 -11 -4 -2 -22 -7 -41 -10 -148 -26 -419 -109 -599 -182 -102 -42
-346 -161 -415 -203 -27 -17 -58 -33 -67 -36 -10 -4 -18 -10 -18 -15 0 -5 -5
-9 -11 -9 -17 0 -223 -142 -338 -232 -535 -423 -936 -996 -1155 -1650 -31 -94
-79 -267 -91 -329 -3 -13 -11 -58 -20 -99 -29 -147 -36 -200 -52 -370 -15
-165 -8 -592 12 -711 2 -13 6 -46 9 -74 9 -78 22 -152 51 -285 21 -96 91 -339
114 -395 5 -11 25 -65 46 -120 52 -136 160 -357 239 -489 36 -60 66 -111 66
-113 0 -2 5 -9 10 -16 6 -7 40 -55 76 -107 448 -642 1114 -1121 1870 -1346
108 -32 148 -42 194 -50 19 -3 38 -8 42 -10 6 -4 120 -26 193 -38 214 -35 294
-41 555 -41 189 0 357 8 431 20 13 2 47 7 74 10 86 12 79 11 205 35 170 32
597 165 645 200 6 4 21 11 35 15 43 13 241 110 334 164 49 28 91 51 93 51 2 0
9 5 16 10 7 6 64 44 127 86 244 162 498 383 669 584 35 41 67 77 70 80 13 10
139 177 193 255 124 178 268 444 353 650 68 164 151 426 181 570 16 79 54 301
59 350 4 33 9 71 11 85 9 47 11 525 4 605 -13 130 -21 202 -25 227 -3 13 -8
43 -11 68 -9 67 -70 335 -94 412 -11 37 -21 70 -21 73 0 2 -16 49 -35 102
-222 615 -578 1125 -1074 1541 -73 61 -311 234 -354 258 -11 6 -51 30 -88 52
-84 52 -292 160 -378 197 -36 15 -83 35 -105 45 -122 53 -410 139 -580 175
-44 9 -89 18 -100 21 -11 2 -45 7 -75 10 -30 3 -58 8 -61 9 -3 2 -35 7 -71 10
-35 4 -78 8 -94 11 -36 6 -532 11 -594 7z"/>
</g>
</svg>
